<svg width="52" height="20" viewBox="0 0 52 20" fill="none" xmlns="http://www.w3.org/2000/svg">
<circle cx="10.5" cy="10" r="10" fill="#EDF0F4"/>
<path d="M10.4727 4L10.3931 4.27021V12.1105L10.4727 12.1899L14.112 10.0386L10.4727 4Z" fill="#343434"/>
<path d="M10.4727 4L6.83331 10.0386L10.4727 12.1899V8.38441V4Z" fill="#8C8C8C"/>
<path d="M10.4727 12.8789L10.4279 12.9336V15.7264L10.4727 15.8573L14.1142 10.7288L10.4727 12.8789Z" fill="#3C3C3B"/>
<path d="M10.4727 15.8573V12.8789L6.83331 10.7288L10.4727 15.8573Z" fill="#8C8C8C"/>
<path d="M10.4727 12.1899L14.112 10.0386L10.4727 8.3844V12.1899Z" fill="#141414"/>
<path d="M6.83331 10.0386L10.4727 12.1899V8.3844L6.83331 10.0386Z" fill="#393939"/>
<path d="M29.352 14V5.6H34.692V6.632H30.624V9.248H34.332V10.256H30.624V12.968H34.692V14H29.352ZM38.1755 14V6.632H35.6915V5.6H41.9195V6.632H39.4475V14H38.1755ZM43.1098 14V5.6H44.3818V9.2H48.4498V5.6H49.7218V14H48.4498V10.244H44.3818V14H43.1098Z" fill="white"/>
</svg>
